<svg width="24" height="30" viewBox="0 0 24 30" fill="none" xmlns="http://www.w3.org/2000/svg">
<path d="M15.9582 0C12.2587 0 9.14829 2.53406 8.24929 5.95636C8.15892 5.95262 8.07042 5.94278 7.97912 5.94278C3.57962 5.94278 0 9.52241 0 13.9219C0 18.0072 6.51496 28.3912 7.25757 29.4011L7.53055 29.7734C7.63497 29.9153 7.80259 30 7.97912 30C8.15564 30 8.32327 29.9148 8.42675 29.7743L8.70066 29.4011C9.10287 28.8542 11.1973 25.5574 13.0337 22.0017C14.1045 24.2478 14.9904 25.9325 15.2372 26.2677L15.5101 26.64C15.6146 26.7819 15.7822 26.8666 15.9587 26.8666C16.1352 26.8666 16.3029 26.7814 16.4063 26.6409L16.6802 26.2677C17.4229 25.2582 23.9378 12.0644 23.9378 7.97912C23.9378 3.57962 20.3582 0 15.9582 0ZM9.80381 14.6022C9.80381 15.608 8.98488 16.4265 7.97912 16.4265C6.97336 16.4265 6.15489 15.608 6.15489 14.6022C6.15489 13.5965 6.97336 12.778 7.97912 12.778C8.53865 12.778 9.03404 13.036 9.36883 13.4335C9.50742 13.8133 9.65117 14.1982 9.80241 14.5896C9.80241 14.5929 9.80381 14.5976 9.80381 14.6022ZM7.97912 27.3269C4.93 22.9691 1.79098 16.2551 1.79098 13.9219C1.79098 10.5099 4.56712 7.7333 7.97912 7.7333C7.98333 7.7333 7.98755 7.73423 7.99176 7.73423C7.98942 7.81664 7.97959 7.89718 7.97959 7.97912C7.97959 8.80601 8.24929 10.0084 8.68053 11.4033C8.45437 11.3541 8.22026 11.3265 7.97912 11.3265C6.17315 11.3265 4.70338 12.7963 4.70338 14.6022C4.70338 16.4082 6.17315 17.877 7.97912 17.877C9.04996 17.877 9.99953 17.3587 10.5975 16.5618C11.0929 17.7506 11.6149 18.9366 12.1258 20.0553C10.9706 22.5191 9.46575 25.2025 7.97912 27.3269ZM15.9582 24.1935C15.239 23.1657 14.5151 21.8486 13.8287 20.4083C13.5075 19.7345 13.1943 19.0345 12.8937 18.3223C11.1195 14.1214 9.78227 9.54394 9.77104 8.00019C9.77104 7.99363 9.77057 7.98567 9.77057 7.97912C9.77057 7.36714 9.86328 6.77764 10.029 6.21857C10.7894 3.6625 13.1582 1.79051 15.9587 1.79051C19.3712 1.79051 22.1468 4.56712 22.1468 7.97912C22.1464 10.3123 19.0074 19.8361 15.9582 24.1935Z" fill="#5EDFFF"/>
</svg>
